<?xml version="1.0" encoding="UTF-8"?>
<svg xmlns="http://www.w3.org/2000/svg" id="Layer_3" data-name="Layer 3" viewBox="0 0 64 64" width="512" height="512"><path d="M60,28H57V22a1,1,0,0,0-1-1H54.207c-1.114,0-2.232.061-3.343.155A2.994,2.994,0,0,0,49,19.184V16A15.017,15.017,0,0,0,34,1H30A15.017,15.017,0,0,0,15,16v3.184a3,3,0,0,0-1.864,1.972C12.023,21.062,10.905,21,9.793,21H8a1,1,0,0,0-1,1v6H4a1,1,0,0,0-1,1V62a1,1,0,0,0,1,1H60a1,1,0,0,0,1-1V29A1,1,0,0,0,60,28Zm-1,2V57H39.5a37.544,37.544,0,0,1,14.708-3H55a1,1,0,0,0,1-1V50a1,1,0,0,0,1-1V30ZM10,50.008a37.521,37.521,0,0,1,21,6.536v1.619A39.486,39.486,0,0,0,10,52ZM24,20H23a1,1,0,0,0-1-1H21V16a9.011,9.011,0,0,1,9-9h4a9.01,9.01,0,0,1,9,9v3H42a1,1,0,0,0-1,1H40a3,3,0,0,0-3,3v1.93A39.737,39.737,0,0,0,32,27.8a39.737,39.737,0,0,0-5-2.868V23A3,3,0,0,0,24,20Zm-1,2h1a1,1,0,0,1,1,1v6a1,1,0,0,1-1,1H23Zm25-1a1,1,0,0,1,1,1v8a1,1,0,0,1-1,1H43V21Zm-7,9H40a1,1,0,0,1-1-1V23a1,1,0,0,1,1-1h1Zm-9,5a7,7,0,1,1-7,7A7.009,7.009,0,0,1,32,35Zm1,21.544a37.521,37.521,0,0,1,21-6.536V52a39.486,39.486,0,0,0-21,6.162ZM55,23V48h-.793A39.5,39.5,0,0,0,33,54.133V50.941a9,9,0,0,0,0-17.882V29.525a37.668,37.668,0,0,1,4-2.372V29a3,3,0,0,0,3,3h1a1,1,0,0,0,1,1h6a3,3,0,0,0,3-3V23.15c1.065-.091,2.138-.15,3.207-.15ZM30,3h4A13.015,13.015,0,0,1,47,16v3H45V16A11.013,11.013,0,0,0,34,5H30A11.013,11.013,0,0,0,19,16v3H17V16A13.015,13.015,0,0,1,30,3ZM15,22a1,1,0,0,1,1-1h5V31H16a1,1,0,0,1-1-1ZM9,23h.793c1.066,0,2.14.06,3.207.151V30a3,3,0,0,0,3,3h6a1,1,0,0,0,1-1h1a3,3,0,0,0,3-3V27.153a37.668,37.668,0,0,1,4,2.372v3.534a9,9,0,0,0,0,17.882v3.192A39.5,39.5,0,0,0,9.793,48H9ZM7,30V49a1,1,0,0,0,1,1v3a1,1,0,0,0,1,1h.793A37.544,37.544,0,0,1,24.5,57H5V30ZM32,61H5V59H28.533c.985.565,1.955,1.162,2.894,1.819a1,1,0,0,0,1.146,0c.939-.657,1.909-1.254,2.894-1.819H59v2Z"/><path d="M28.475,46.851a1,1,0,0,0,.972.044l8-4a1,1,0,0,0,0-1.79l-8-4A1,1,0,0,0,28,38v8A1,1,0,0,0,28.475,46.851ZM30,39.618,34.764,42,30,44.382Z"/></svg>
