<svg id="Capa_1" enable-background="new 0 0 512 512" height="512" viewBox="0 0 512 512" width="512" xmlns="http://www.w3.org/2000/svg"><path d="m376 271h-60v-18.883c27.182-18.996 45-50.513 45-86.117v-91c0-41.355-33.645-75-75-75h-60c-41.355 0-75 33.645-75 75v91c0 35.604 17.818 67.121 45 86.117v18.883h-60c-57.897 0-105 47.103-105 105v121c0 8.284 6.716 15 15 15s15-6.716 15-15v-46h60v46c0 8.284 6.716 15 15 15s15-6.716 15-15v-61c0-8.284-6.716-15-15-15h-75v-45c0-41.355 33.645-75 75-75h62.628c6.228 17.416 22.859 29.925 42.372 29.996v32.584c-17.459 6.192-30 22.865-30 42.42 0 31.032 30.814 52.772 60 42.42v17.58c0 8.284 6.716 15 15 15s15-6.716 15-15v-60c0-19.555-12.541-36.228-30-42.42v-32.584c19.513-.071 36.144-12.58 42.372-29.996h62.628c41.355 0 75 33.645 75 75v45h-75c-8.284 0-15 6.716-15 15v61c0 8.284 6.716 15 15 15s15-6.716 15-15v-46h60v46c0 8.284 6.716 15 15 15s15-6.716 15-15v-121c0-57.897-47.103-105-105-105zm-150-241h60c24.813 0 45 20.187 45 45v16h-150v-16c0-24.813 20.187-45 45-45zm85.745 91-17.314 27.338c-25.087-6.564-51.773-6.564-76.861 0l-17.315-27.338zm-130.745 45v-19.334l17.328 27.359c3.689 5.825 10.875 8.383 17.415 6.205 25.992-8.662 51.903-9.535 80.516 0 6.547 2.182 13.728-.385 17.415-6.205l17.326-27.359v19.334c0 41.355-33.645 75-75 75s-75-33.645-75-75zm75 255c-8.271 0-15-6.729-15-15s6.729-15 15-15 15 6.729 15 15-6.729 15-15 15zm14.833-120h-29.667c-8.363 0-15.167-6.804-15.167-15.167v-19.207c19.515 5.829 40.449 5.839 60 0v19.207c.001 8.363-6.803 15.167-15.166 15.167z"/></svg>